<?xml version="1.0" encoding="UTF-8"?>
<svg version="1.1" xmlns="http://www.w3.org/2000/svg" width="946" height="946">
<path d="M0 0 C37.02677662 -0.90364311 74.41193777 3.15484687 110.54541016 11.06640625 C111.62226074 11.30166016 112.69911133 11.53691406 113.80859375 11.77929688 C142.0836608 18.10063615 170.06377023 27.3026119 196.54541016 39.06640625 C197.5621582 39.5145166 198.57890625 39.96262695 199.62646484 40.42431641 C234.77148587 56.00390494 267.06927091 75.70162354 297.54541016 99.06640625 C298.47812744 99.77845215 298.47812744 99.77845215 299.4296875 100.50488281 C306.60153045 105.99425427 313.47452069 111.65277749 320.09619141 117.80078125 C322.22928883 119.77398142 324.39900002 121.67935328 326.60791016 123.56640625 C331.50042039 127.8146353 335.99985269 132.4541114 340.54541016 137.06640625 C343.27220571 139.80663429 346.01523443 142.52844617 348.77978516 145.23046875 C355.08464847 151.42029283 361.05834396 157.62524238 366.54150391 164.5625 C368.44474377 166.94062232 370.42985319 169.19243133 372.48291016 171.44140625 C433.58402108 239.65290287 468.22063609 333.21505998 478.54541016 423.06640625 C478.66400391 424.06446289 478.78259766 425.06251953 478.90478516 426.09082031 C488.77808983 513.04054807 470.85042551 603.57369595 399.54541016 739.06640625 C399.11824707 739.69047363 398.69108398 740.31454102 398.25097656 740.95751953 C391.28141014 751.12964654 383.89005157 760.8230375 376.00585938 770.30175781 C373.95059926 772.78511123 371.93980751 775.30385839 369.92041016 777.81640625 C365.48593602 783.22824171 360.77922924 788.36795238 356.01318359 793.48535156 C354.48802083 795.12822482 352.97272674 796.77974857 351.45947266 798.43359375 C344.21247159 806.34644932 336.9416527 814.10557364 328.78759766 821.1015625 C326.62355989 822.99792312 324.51976411 824.94987454 322.41992188 826.91674805 C316.00155737 832.90770925 309.26423687 838.35270194 302.30566406 843.70019531 C300.59223058 845.03006685 298.90010728 846.38256783 297.21337891 847.74609375 C228.82682639 902.86002549 144.0017564 933.51284469 57.54541016 944.06640625 C56.49708008 944.19917969 55.44875 944.33195313 54.36865234 944.46875 C-10.45893207 952.34272477 -78.57651624 942.88561902 -140.45458984 923.06640625 C-141.78441895 922.64174072 -141.78441895 922.64174072 -143.14111328 922.20849609 C-191.394925 906.57500777 -237.22737033 881.82771275 -277.45458984 851.06640625 C-278.32253174 850.40463379 -278.32253174 850.40463379 -279.20800781 849.72949219 C-294.09638106 838.32859641 -308.57485486 826.14760146 -321.72021484 812.765625 C-323.52256795 810.93624571 -323.52256795 810.93624571 -326.01708984 809.06640625 C-328.87969108 806.71760524 -331.11199876 804.07411051 -333.50927734 801.26171875 C-335.52697905 798.98471402 -337.64844604 796.87425162 -339.82958984 794.75390625 C-343.98295486 790.65695367 -347.64075991 786.28681867 -351.28271484 781.734375 C-353.20849516 779.3687132 -355.20038184 777.12068662 -357.26708984 774.87890625 C-362.54272297 768.99855628 -367.16769064 762.62762664 -371.83837891 756.26513672 C-373.46023569 754.05872552 -375.09396522 751.86144348 -376.72802734 749.6640625 C-384.25458372 739.47292187 -391.06407343 729.00233739 -397.45458984 718.06640625 C-397.93782715 717.24269531 -398.42106445 716.41898438 -398.91894531 715.5703125 C-402.50212826 709.44170541 -406.00575788 703.27155206 -409.45458984 697.06640625 C-409.91865234 696.23302734 -410.38271484 695.39964844 -410.86083984 694.54101562 C-445.87944173 631.11954204 -463.84435129 557.27218662 -465.45458984 485.06640625 C-465.47650391 484.2057959 -465.49841797 483.34518555 -465.52099609 482.45849609 C-467.30623484 402.31615335 -447.8241572 324.20028696 -411.45458984 253.06640625 C-410.91833984 252.01598145 -410.38208984 250.96555664 -409.82958984 249.88330078 C-399.29291914 229.46507139 -386.97143664 209.90073331 -372.80859375 191.80126953 C-371.46180833 190.07565517 -370.13343094 188.33736582 -368.81005859 186.59375 C-361.26540623 176.66718 -353.47352912 167.0296688 -345.00927734 157.8671875 C-343.08213135 155.754399 -341.2129849 153.619447 -339.35302734 151.44921875 C-335.01104004 146.47414697 -330.37169907 141.79745131 -325.70410156 137.13061523 C-324.21565747 135.6399901 -322.73541708 134.14153608 -321.25537109 132.64257812 C-315.72704014 127.08261676 -310.0577374 121.91793632 -303.89941406 117.04370117 C-301.44506552 115.05870329 -299.13401528 112.97255556 -296.82958984 110.81640625 C-289.76754877 104.40041941 -282.10241401 98.75716173 -274.45458984 93.06640625 C-273.72143555 92.51903809 -272.98828125 91.97166992 -272.23291016 91.40771484 C-193.36464671 32.75358615 -97.79824265 2.64582475 0 0 Z " fill="#EF6C38" transform="translate(465.45458984375,-0.06640625)"/>
<path d="M0 0 C30.03 0 60.06 0 91 0 C91 35.64 91 71.28 91 108 C96.61 108.66 102.22 109.32 108 110 C141.65175474 115.60441827 177.05710356 128.85388043 207 145 C207.71704102 145.38124023 208.43408203 145.76248047 209.17285156 146.15527344 C217.52006462 150.60688126 225.67343541 155.27374551 233.5625 160.5 C234.20002197 160.9213623 234.83754395 161.34272461 235.49438477 161.77685547 C239.87066837 164.74133675 239.87066837 164.74133675 241 167 C240.19677734 168.64013672 240.19677734 168.64013672 238.8359375 170.6796875 C238.03953857 171.88733765 238.03953857 171.88733765 237.22705078 173.11938477 C236.61587402 174.02873779 236.00469727 174.93809082 235.375 175.875 C234.7341748 176.84300537 234.09334961 177.81101074 233.43310547 178.80834961 C231.89918448 181.12512664 230.36230304 183.43974243 228.82226562 185.75244141 C223.54151047 193.69052106 218.30833446 201.66019153 213.06329346 209.62188721 C211.15883432 212.51116947 209.25233446 215.39909439 207.34521484 218.28662109 C200.8328055 228.15089013 194.35494986 238.03337299 188 248 C184.08450289 246.538455 180.54308503 244.71127285 176.90625 242.65625 C175.70934645 241.98450802 174.51223516 241.31313609 173.31494141 240.64208984 C172.69242493 240.2921698 172.06990845 239.94224976 171.42852783 239.58172607 C142.7288957 223.48388197 114.30323222 210.45334493 81.58691406 205.40673828 C79.44632733 205.07017566 77.31193265 204.69449088 75.1796875 204.30859375 C46.33105646 199.52279997 13.08379485 201.87470331 -12 218 C-20.44403041 224.06987782 -26.41326959 231.60505271 -28.6328125 241.94921875 C-30.21409371 255.08731055 -28.71678468 266.94782659 -20.8046875 277.8515625 C-14.0632995 285.87702441 -6.11547494 291.0365646 3.05317688 295.95184326 C4.87794119 296.93428434 6.6946967 297.92996642 8.50976562 298.93017578 C16.75128552 303.44034353 25.0713145 307.34030201 33.8125 310.8125 C35.15200495 311.35123045 36.49143891 311.89013743 37.83081055 312.42919922 C52.01434252 318.10686358 66.32193047 323.46724441 80.61068726 328.87271118 C174.77935287 364.50355299 174.77935287 364.50355299 204 390 C204.72703125 390.60585938 205.4540625 391.21171875 206.203125 391.8359375 C210.96180199 395.84993603 215.03720562 400.20615602 219 405 C219.61488281 405.72703125 220.22976563 406.4540625 220.86328125 407.203125 C235.06395355 424.39191472 244.8959984 443.00919168 249.125 465 C249.29386719 465.83789062 249.46273438 466.67578125 249.63671875 467.5390625 C251.74511502 478.26366083 252.18639178 488.69698943 252.18530273 499.6081543 C252.18747321 502.0325724 252.20563266 504.45652236 252.22460938 506.88085938 C252.27371608 520.12490411 251.55961403 533.28754278 247.75 546.0625 C247.53529053 546.80580566 247.32058105 547.54911133 247.09936523 548.31494141 C237.93059453 579.1359399 220.28442875 604.31238491 195 624 C193.5459375 625.15628906 193.5459375 625.15628906 192.0625 626.3359375 C168.4429909 644.22424218 139.85193118 655.1712681 111 661 C110.20964355 661.16226074 109.41928711 661.32452148 108.60498047 661.49169922 C96.26538313 664 96.26538313 664 91 664 C91 700.3 91 736.6 91 774 C60.97 774 30.94 774 0 774 C0 738.69 0 703.38 0 667 C-4.29 666.67 -8.58 666.34 -13 666 C-26.03128383 664.58999892 -38.83718804 662.72679379 -51.56835938 659.59326172 C-54.25438207 658.93793691 -56.94706204 658.31498328 -59.640625 657.69140625 C-80.52388396 652.7679743 -100.40551882 645.70045352 -120 637 C-120.69722168 636.69658691 -121.39444336 636.39317383 -122.11279297 636.08056641 C-140.93370398 627.85723509 -158.32159809 616.92338474 -175 605 C-174.3858783 602.04887201 -173.4628105 599.83034288 -171.8828125 597.26953125 C-171.44686768 596.55853271 -171.01092285 595.84753418 -170.56176758 595.11499023 C-169.85056763 593.97525757 -169.85056763 593.97525757 -169.125 592.8125 C-168.62959717 592.01078369 -168.13419434 591.20906738 -167.6237793 590.38305664 C-163.5253334 583.77816608 -159.31797042 577.24649184 -155.07421875 570.734375 C-151.38943764 565.07451207 -147.76000807 559.37940119 -144.125 553.6875 C-137.13893036 542.75524733 -130.09158708 531.86406077 -123 521 C-122.2678125 521.42667969 -121.535625 521.85335937 -120.78125 522.29296875 C-116.86749586 524.55269584 -112.93568376 526.77876039 -109 529 C-108.14212891 529.48758789 -107.28425781 529.97517578 -106.40039062 530.47753906 C-86.15652519 541.93187056 -65.196114 551.63647774 -42.90966797 558.41650391 C-41.13274622 558.9594396 -39.36473918 559.53131896 -37.59765625 560.10546875 C-27.54288244 563.2259158 -17.22844025 564.87497252 -6.84741211 566.52563477 C-4.98592895 566.83574895 -3.12918469 567.1762262 -1.27954102 567.55053711 C8.06907208 569.36771483 17.32639336 569.35187133 26.8125 569.3125 C28.10350616 569.31076279 28.10350616 569.31076279 29.42059326 569.30899048 C43.12993487 569.27253031 56.50159366 568.56321784 70 566 C71.24652344 565.77183594 72.49304688 565.54367187 73.77734375 565.30859375 C91.45538581 561.63004754 110.80851743 554.54092113 121.84375 539.484375 C130.07354995 526.33283194 132.00168081 511.46746052 129.3515625 496.28515625 C125.07625621 480.91963236 113.82541299 470.06542615 100.36328125 462.1484375 C98.68686896 461.21099872 97.00279992 460.28715998 95.3125 459.375 C94.3652002 458.86340332 93.41790039 458.35180664 92.44189453 457.82470703 C79.66025211 451.07148262 66.34255319 445.52806681 53 440 C52.16355957 439.65308105 51.32711914 439.30616211 50.46533203 438.94873047 C31.73381467 431.18553039 12.97457009 423.50091649 -5.9375 416.1875 C-36.70727341 404.20508381 -67.97092392 390.23526318 -95 371 C-95.88300781 370.37738281 -96.76601563 369.75476563 -97.67578125 369.11328125 C-125.34653265 348.23567668 -143.00728234 318.97121826 -149 285 C-149.20625 283.86175781 -149.4125 282.72351563 -149.625 281.55078125 C-152.51817297 262.64469954 -152.51852547 242.61944116 -148 224 C-147.7215625 222.74703125 -147.443125 221.4940625 -147.15625 220.203125 C-142.10342908 199.20778292 -131.59178908 180.7817413 -117 165 C-116.53223145 164.48840332 -116.06446289 163.97680664 -115.58251953 163.44970703 C-104.21846828 151.14937968 -90.86749948 141.67815188 -76 134 C-75.23445801 133.60425781 -74.46891602 133.20851562 -73.68017578 132.80078125 C-57.55292996 124.57420893 -41.08108517 118.68640348 -23.5625 114.1875 C-22.80702881 113.99244873 -22.05155762 113.79739746 -21.27319336 113.59643555 C-14.17985126 111.86640795 -7.33423661 111.04774809 0 110 C0 73.7 0 37.4 0 0 Z " fill="#FEFEFE" transform="translate(435,86)"/>
</svg>
